<?xml version="1.0" encoding="UTF-8"?>
<svg width="75px" height="75px" viewBox="0 0 75 75" version="1.1" xmlns="http://www.w3.org/2000/svg" xmlns:xlink="http://www.w3.org/1999/xlink">
    <title>F93F9705-43CA-418B-9356-B85FA61CE877</title>
    <defs>
        <linearGradient x1="50%" y1="-5.3030303%" x2="50%" y2="100%" id="linearGradient-1">
            <stop stop-color="#F3F8FF" offset="0%"></stop>
            <stop stop-color="#8FC2FF" offset="61.9792%"></stop>
            <stop stop-color="#5CA6FF" offset="100%"></stop>
        </linearGradient>
        <linearGradient x1="-50%" y1="-3.44827586%" x2="-50%" y2="103.448276%" id="linearGradient-2">
            <stop stop-color="#F0F7FF" offset="0%"></stop>
            <stop stop-color="#A4CDFF" offset="100%"></stop>
        </linearGradient>
        <linearGradient x1="473.666%" y1="0%" x2="421.858%" y2="465.386%" id="linearGradient-3">
            <stop stop-color="#F3F8FF" offset="0%"></stop>
            <stop stop-color="#AED3FF" offset="100%"></stop>
        </linearGradient>
        <linearGradient x1="473.666%" y1="-320%" x2="421.858%" y2="145.386%" id="linearGradient-4">
            <stop stop-color="#F3F8FF" offset="0%"></stop>
            <stop stop-color="#AED3FF" offset="100%"></stop>
        </linearGradient>
        <linearGradient x1="353.666%" y1="-160%" x2="301.858%" y2="305.386%" id="linearGradient-5">
            <stop stop-color="#F3F8FF" offset="0%"></stop>
            <stop stop-color="#AED3FF" offset="100%"></stop>
        </linearGradient>
        <linearGradient x1="293.666%" y1="0%" x2="241.858%" y2="465.386%" id="linearGradient-6">
            <stop stop-color="#F3F8FF" offset="0%"></stop>
            <stop stop-color="#AED3FF" offset="100%"></stop>
        </linearGradient>
        <linearGradient x1="293.666%" y1="-320%" x2="241.858%" y2="145.386%" id="linearGradient-7">
            <stop stop-color="#F3F8FF" offset="0%"></stop>
            <stop stop-color="#AED3FF" offset="100%"></stop>
        </linearGradient>
        <linearGradient x1="173.666%" y1="-160%" x2="121.858%" y2="305.386%" id="linearGradient-8">
            <stop stop-color="#F3F8FF" offset="0%"></stop>
            <stop stop-color="#AED3FF" offset="100%"></stop>
        </linearGradient>
        <linearGradient x1="113.666%" y1="0%" x2="61.858%" y2="465.386%" id="linearGradient-9">
            <stop stop-color="#F3F8FF" offset="0%"></stop>
            <stop stop-color="#AED3FF" offset="100%"></stop>
        </linearGradient>
        <linearGradient x1="113.666%" y1="-320%" x2="61.858%" y2="145.386%" id="linearGradient-10">
            <stop stop-color="#F3F8FF" offset="0%"></stop>
            <stop stop-color="#AED3FF" offset="100%"></stop>
        </linearGradient>
        <linearGradient x1="-6.334%" y1="-160%" x2="-58.142%" y2="305.386%" id="linearGradient-11">
            <stop stop-color="#F3F8FF" offset="0%"></stop>
            <stop stop-color="#AED3FF" offset="100%"></stop>
        </linearGradient>
        <linearGradient x1="330.353051%" y1="0%" x2="380.039518%" y2="308.01191%" id="linearGradient-12">
            <stop stop-color="#F3F8FF" offset="0%"></stop>
            <stop stop-color="#A8D0FF" offset="100%"></stop>
        </linearGradient>
        <linearGradient x1="32.4012818%" y1="9.8829846%" x2="76.9071645%" y2="257.012508%" id="linearGradient-13">
            <stop stop-color="#F3F8FF" offset="0%"></stop>
            <stop stop-color="#A8D0FF" offset="100%"></stop>
        </linearGradient>
        <linearGradient x1="301.12217%" y1="-121.477373%" x2="345.628053%" y2="125.65215%" id="linearGradient-14">
            <stop stop-color="#F3F8FF" offset="0%"></stop>
            <stop stop-color="#A8D0FF" offset="100%"></stop>
        </linearGradient>
        <linearGradient x1="180.351262%" y1="-163.716195%" x2="230.037047%" y2="144.287263%" id="linearGradient-15">
            <stop stop-color="#F3F8FF" offset="0%"></stop>
            <stop stop-color="#A8D0FF" offset="100%"></stop>
        </linearGradient>
        <linearGradient x1="180.351262%" y1="0.00137210914%" x2="230.037047%" y2="308.00483%" id="linearGradient-16">
            <stop stop-color="#F3F8FF" offset="0%"></stop>
            <stop stop-color="#A8D0FF" offset="100%"></stop>
        </linearGradient>
        <linearGradient x1="180.351262%" y1="-329.302562%" x2="230.037047%" y2="-21.299104%" id="linearGradient-17">
            <stop stop-color="#F3F8FF" offset="0%"></stop>
            <stop stop-color="#A8D0FF" offset="100%"></stop>
        </linearGradient>
        <linearGradient x1="30.3526345%" y1="-163.716195%" x2="80.0384193%" y2="144.287263%" id="linearGradient-18">
            <stop stop-color="#F3F8FF" offset="0%"></stop>
            <stop stop-color="#A8D0FF" offset="100%"></stop>
        </linearGradient>
    </defs>
    <g id="icons-&amp;-illustrations-&amp;-logos" stroke="none" stroke-width="1" fill="none" fill-rule="evenodd">
        <g id="Group" transform="translate(0.000000, 10.000000)">
            <rect id="Rectangle" fill="#1B70F0" fill-rule="nonzero" x="0" y="4.42857143" width="74.2857143" height="51" rx="4.8"></rect>
            <rect id="Rectangle" fill="url(#linearGradient-1)" fill-rule="nonzero" x="4.28571429" y="0.142857143" width="65.7142857" height="51" rx="3.2"></rect>
            <line x1="37.1428571" y1="8.28571429" x2="37.1428571" y2="29" id="Path" stroke="url(#linearGradient-2)" stroke-width="1.6" stroke-linecap="round"></line>
            <path d="M47.1428571,14.3571429 C47.1428571,15.3433571 46.3433571,16.1428571 45.3571429,16.1428571 C44.3709286,16.1428571 43.5714286,15.3433571 43.5714286,14.3571429 C43.5714286,13.3709286 44.3709286,12.5714286 45.3571429,12.5714286 C46.3433571,12.5714286 47.1428571,13.3709286 47.1428571,14.3571429 Z" id="Path" fill="url(#linearGradient-3)" fill-rule="nonzero"></path>
            <path d="M47.1428571,25.7857143 C47.1428571,26.7719286 46.3433571,27.5714286 45.3571429,27.5714286 C44.3709286,27.5714286 43.5714286,26.7719286 43.5714286,25.7857143 C43.5714286,24.7995 44.3709286,24 45.3571429,24 C46.3433571,24 47.1428571,24.7995 47.1428571,25.7857143 Z" id="Path" fill="url(#linearGradient-4)" fill-rule="nonzero"></path>
            <path d="M49.6428571,21.8571429 C50.6290714,21.8571429 51.4285714,21.0576429 51.4285714,20.0714286 C51.4285714,19.0852143 50.6290714,18.2857143 49.6428571,18.2857143 C48.6566429,18.2857143 47.8571429,19.0852143 47.8571429,20.0714286 C47.8571429,21.0576429 48.6566429,21.8571429 49.6428571,21.8571429 Z" id="Path" fill="url(#linearGradient-5)" fill-rule="nonzero"></path>
            <path d="M53.5714286,14.3571429 C53.5714286,15.3433571 52.7719286,16.1428571 51.7857143,16.1428571 C50.7995,16.1428571 50,15.3433571 50,14.3571429 C50,13.3709286 50.7995,12.5714286 51.7857143,12.5714286 C52.7719286,12.5714286 53.5714286,13.3709286 53.5714286,14.3571429 Z" id="Path" fill="url(#linearGradient-6)" fill-rule="nonzero"></path>
            <path d="M51.7857143,27.5714286 C52.7719286,27.5714286 53.5714286,26.7719286 53.5714286,25.7857143 C53.5714286,24.7995 52.7719286,24 51.7857143,24 C50.7995,24 50,24.7995 50,25.7857143 C50,26.7719286 50.7995,27.5714286 51.7857143,27.5714286 Z" id="Path" fill="url(#linearGradient-7)" fill-rule="nonzero"></path>
            <path d="M57.8571429,20.0714286 C57.8571429,21.0576429 57.0576429,21.8571429 56.0714286,21.8571429 C55.0852143,21.8571429 54.2857143,21.0576429 54.2857143,20.0714286 C54.2857143,19.0852143 55.0852143,18.2857143 56.0714286,18.2857143 C57.0576429,18.2857143 57.8571429,19.0852143 57.8571429,20.0714286 Z" id="Path" fill="url(#linearGradient-8)" fill-rule="nonzero"></path>
            <path d="M58.2142857,16.1428571 C59.2005,16.1428571 60,15.3433571 60,14.3571429 C60,13.3709286 59.2005,12.5714286 58.2142857,12.5714286 C57.2280714,12.5714286 56.4285714,13.3709286 56.4285714,14.3571429 C56.4285714,15.3433571 57.2280714,16.1428571 58.2142857,16.1428571 Z" id="Path" fill="url(#linearGradient-9)" fill-rule="nonzero"></path>
            <path d="M60,25.7857143 C60,26.7719286 59.2005,27.5714286 58.2142857,27.5714286 C57.2280714,27.5714286 56.4285714,26.7719286 56.4285714,25.7857143 C56.4285714,24.7995 57.2280714,24 58.2142857,24 C59.2005,24 60,24.7995 60,25.7857143 Z" id="Path" fill="url(#linearGradient-10)" fill-rule="nonzero"></path>
            <path d="M62.5,21.8571429 C63.4864286,21.8571429 64.2857143,21.0576429 64.2857143,20.0714286 C64.2857143,19.0852143 63.4864286,18.2857143 62.5,18.2857143 C61.5137857,18.2857143 60.7142857,19.0852143 60.7142857,20.0714286 C60.7142857,21.0576429 61.5137857,21.8571429 62.5,21.8571429 Z" id="Path" fill="url(#linearGradient-11)" fill-rule="nonzero"></path>
            <path d="M11.6043571,10.4285714 C10.8856429,10.4285714 10.303,11.0112143 10.303,11.73 L10.303,14.3327857 C10.303,15.0515714 10.8856429,15.6342143 11.6043571,15.6342143 L14.2072143,15.6342143 C14.926,15.6342143 15.5086429,15.0515714 15.5086429,14.3327857 L15.5086429,11.73 C15.5086429,11.0112143 14.926,10.4285714 14.2072143,10.4285714 L11.6043571,10.4285714 Z" id="Path" fill="url(#linearGradient-12)" fill-rule="nonzero"></path>
            <path d="M27.9592143,10.7539286 C28.2097143,10.3201429 28.8358571,10.3201429 29.0862857,10.7539286 L31.3404286,14.6582143 C31.5908571,15.092 31.2777857,15.6342143 30.7768571,15.6342143 L26.2686429,15.6342143 C25.7677143,15.6342143 25.4546429,15.092 25.7051429,14.6582143 L27.9592143,10.7539286 Z" id="Path" fill="url(#linearGradient-13)" fill-rule="nonzero"></path>
            <path d="M12.3422857,19.2767143 C12.5927143,18.8429286 13.2188571,18.8429286 13.4693571,19.2767143 L15.7234286,23.181 C15.9739286,23.6147857 15.6608571,24.157 15.1599286,24.157 L10.6517143,24.157 C10.1507857,24.157 9.83771429,23.6147857 10.0881429,23.181 L12.3422857,19.2767143 Z" id="Path" fill="url(#linearGradient-14)" fill-rule="nonzero"></path>
            <path d="M18.1114286,20.2527857 C18.1114286,19.534 18.6941429,18.9513571 19.4128571,18.9513571 L22.0157143,18.9513571 C22.7344286,18.9513571 23.3171429,19.534 23.3171429,20.2527857 L23.3171429,22.8555714 C23.3171429,23.5743571 22.7344286,24.157 22.0157143,24.157 L19.4128571,24.157 C18.6941429,24.157 18.1114286,23.5743571 18.1114286,22.8555714 L18.1114286,20.2527857 Z" id="Path" fill="url(#linearGradient-15)" fill-rule="nonzero"></path>
            <path d="M20.7142857,15.6342143 C22.1517857,15.6342143 23.3171429,14.4689286 23.3171429,13.0314286 C23.3171429,11.5939286 22.1517857,10.4285714 20.7142857,10.4285714 C19.2767857,10.4285714 18.1114286,11.5939286 18.1114286,13.0314286 C18.1114286,14.4689286 19.2767857,15.6342143 20.7142857,15.6342143 Z" id="Path" fill="url(#linearGradient-16)" fill-rule="nonzero"></path>
            <path d="M23.3171429,30.1742857 C23.3171429,31.6117857 22.1517857,32.7770714 20.7142857,32.7770714 C19.2767857,32.7770714 18.1114286,31.6117857 18.1114286,30.1742857 C18.1114286,28.7367857 19.2767857,27.5714286 20.7142857,27.5714286 C22.1517857,27.5714286 23.3171429,28.7367857 23.3171429,30.1742857 Z" id="Path" fill="url(#linearGradient-17)" fill-rule="nonzero"></path>
            <path d="M28.5227857,24.157 C29.9602857,24.157 31.1256429,22.9917143 31.1256429,21.5541429 C31.1256429,20.1166429 29.9602857,18.9513571 28.5227857,18.9513571 C27.0852857,18.9513571 25.9199286,20.1166429 25.9199286,21.5541429 C25.9199286,22.9917143 27.0852857,24.157 28.5227857,24.157 Z" id="Path" fill="url(#linearGradient-18)" fill-rule="nonzero"></path>
        </g>
    </g>
</svg>