<svg xmlns="http://www.w3.org/2000/svg" width="20" height="20" viewBox="0 0 20 20">
    <g fill="none" fill-rule="evenodd" stroke-linejoin="round">
        <g fill="#1F2343" stroke="#1F2343" stroke-width=".5">
            <path d="M6 1v1.5h8V1h1v1.5h1.5C17.877 2.5 19 3.621 19 5h0v11.5c0 1.38-1.122 2.5-2.5 2.5h0-13C2.122 19 1 17.88 1 16.5h0V5c0-1.378 1.122-2.5 2.5-2.5H5V1h1zm12 6.5H2v9c0 .826.673 1.5 1.5 1.5h13c.826 0 1.5-.674 1.5-1.5h0v-9zm-13-4H3.5C2.673 3.5 2 4.171 2 5h0v1.5h16V5c0-.828-.674-1.5-1.5-1.5h0H15v1h-1v-1H6v1H5v-1z"/>
        </g>
    </g>
</svg>
