<svg xmlns="http://www.w3.org/2000/svg" width="16" height="16" viewBox="0 0 16 16">
    <g fill="none" fill-rule="evenodd">
        <g fill="#1F2343">
            <g>
                <path d="M9.925 0l.157.009c.42.042.836.233 1.107.557.26.315.41.676.412 1.084l-.001.708h3.74c.336 0 .592.244.649.551l.01.094c.017.349-.314.645-.659.645h-.699v9.971l.001.197v.197c-.004.508-.203.985-.551 1.36-.372.401-.928.622-1.478.627H3.409c-.732-.002-1.437-.38-1.793-1.015-.192-.338-.26-.708-.26-1.09V3.648H.66c-.336 0-.592-.244-.649-.55l-.01-.095c-.017-.348.314-.645.659-.645h.025c.19-.002.38 0 .57 0h.78c.157-.002.312 0 .469 0H4.4v-.713c.004-.568.296-1.07.772-1.385.279-.187.623-.26.958-.26h3.795zm-4.88 3.65l-2.372-.002V13.76c0 .095-.002.192.001.29l.005.063.004.023c.009.037.019.075.03.111l.013.036.013.027c.02.035.04.07.062.103l.027.038-.06-.07.052.065.049.062-.037-.052.01.01c.026.027.052.054.08.08l.02.015.034.024c.035.022.07.042.106.06l.024.011.04.015.114.03.035.005.094.004h9.224l.08-.003.042-.007c.039-.008.076-.018.114-.029l.039-.015.025-.01.106-.061.038-.027.016-.013c.028-.025.054-.052.08-.079l.018-.021.024-.032c.022-.033.042-.068.061-.103l.012-.027.014-.036c.012-.036.022-.074.03-.111l.005-.028-.007.085.023-.17-.014.077.002-.094V3.648h-2.366l-.013.002h-.01c-.238.003-.476 0-.714 0H5.046zm5.056 1.611c.356-.016.66.308.66.645v.012c.004.264 0 .529 0 .793v5.74c0 .363-.302.631-.66.646-.356.016-.659-.308-.659-.645v-.012c-.005-.264 0-.529 0-.793v-5.74c0-.362.302-.63.66-.646zm-4.206 0c.356-.016.66.308.66.645v.012c.005.264 0 .529 0 .793v5.74c0 .363-.304.631-.66.646-.355.016-.659-.308-.659-.645v-.012c-.005-.264 0-.529 0-.793v-5.74c0-.362.302-.63.66-.646zM9.924 1.28v.002l.048.01-.047-.002-.001-.008h-.003v.008H6.409c-.157 0-.318-.011-.473.008l.097-.007-.051.011-.042.013-.04.02-.053.034-.05.049-.034.052-.026.05-.017.062-.003.051v.128l-.001.597h4.564v-.313c0-.118.006-.24.004-.36l-.007-.091-.01-.044-.014-.042.021.041-.001-.009-.014-.035-.018-.04-.005-.006.017.048-.02-.037-.035-.054-.049-.047-.052-.033-.053-.026-.07-.019.02.002.017.001-.007-.004-.03-.003-.049-.007z" transform="translate(-314 -10) translate(314 10)"/>
            </g>
        </g>
    </g>
</svg>
