<svg xmlns="http://www.w3.org/2000/svg" width="20" height="20" viewBox="0 0 20 20">
    <g fill="none" fill-rule="evenodd">
        <g fill="#1F2343">
            <path d="M12 0c.552 0 1 .448 1 1v16.895c0 .263-.104.516-.289.703l-3 3.037c-.388.393-1.02.396-1.414.008l-.008-.008-3-3.037c-.185-.187-.289-.44-.289-.703V1c0-.552.448-1 1-1h6zm-.63 5.299H6.63c-.157.156-.263.363-.29.594l-.007.117v10.985c0 .201.061.397.173.562l.074.095 1.667 1.91c.03.034.061.066.095.096.385.335.952.324 1.323-.007l.088-.09 1.667-1.909c.133-.152.215-.34.24-.537l.007-.12V6.01c0-.278-.114-.53-.297-.711zm-.703-3.854H7.333c-.552 0-1 .448-1 1v.409c0 .552.448 1 1 1h3.334c.552 0 1-.448 1-1v-.409c0-.552-.448-1-1-1z" transform="rotate(45 9 11)"/>
        </g>
    </g>
</svg>
