<svg xmlns="http://www.w3.org/2000/svg" width="20" height="20" viewBox="0 0 20 20">
    <g fill="none" fill-rule="evenodd">
        <g fill="#1F2343" fill-rule="nonzero" stroke="#1F2343" stroke-width=".25">
            <path d="M17.891 3c1.053 0 1.909.917 1.909 2.044h0v9.912c0 1.127-.856 2.044-1.909 2.044h0H2.11C1.056 17 .2 16.083.2 14.956h0V5.044C.2 3.917 1.056 3 2.109 3h0zM1.447 6.258v8.698c0 .39.297.708.662.708H17.89c.366 0 .663-.318.663-.708h0V6.289l-8.203 5.382c-.197.13-.455.13-.651 0h0L1.447 6.258zm16.444-1.922H2.11c-.259 0-.486.158-.595.4h0l8.51 5.583 8.473-5.559c-.104-.252-.34-.424-.606-.424h0z"/>
        </g>
    </g>
</svg>
