<svg xmlns="http://www.w3.org/2000/svg" width="20" height="20" viewBox="0 0 20 20">
    <g fill="none" fill-rule="evenodd">
        <g fill="#1F2343">
            <path d="M10.014 0c3.478 0 6.267 2.824 6.267 6.307v.361l.37.024c.995.08 1.849.867 1.849 1.828v9.628c0 1.023-.827 1.852-1.849 1.852H3.35C2.328 20 1.5 19.17 1.5 18.148V8.52c0-.971.886-1.804 1.849-1.852h.356v-.363h.012C3.717 2.823 6.537 0 10.014 0zm5.722 8.5H4.264c-.422 0-.764.35-.764.784v7.832c0 .433.342.784.764.784h11.472c.422 0 .764-.351.764-.784V9.284c0-.433-.342-.784-.764-.784zM10.054 2C7.709 2 5.809 3.903 5.808 6.25H5.8v.388h8.48v-.03c.012-.112.02-.228.02-.356C14.3 3.904 12.399 2 10.054 2z"/>
            <path d="M10.167 15.549h-.334c-.46 0-.833-.413-.833-.923v-2.559c0-.51.373-.923.833-.923h.334c.46 0 .833.413.833.923v2.56c0 .509-.373.922-.833.922z"/>
        </g>
    </g>
</svg>
