<svg xmlns="http://www.w3.org/2000/svg" width="18" height="18" viewBox="0 0 18 18">
    <g fill="none" fill-rule="evenodd">
        <g fill="#1F2343" stroke="#1F2343" stroke-width=".5">
            <g>
                <g>
                    <path d="M11.884 15.996c-.293-.049-.587-.087-.877-.149-1.082-.268-2.12-.692-3.079-1.26-1.509-.84-2.877-1.91-4.053-3.175C2.444 9.857 1.253 8.144.502 6.15c-.29-.717-.458-1.478-.495-2.25-.056-.765.213-1.518.743-2.072.448-.459.88-.935 1.363-1.353.745-.64 1.555-.64 2.274.03.76.713 1.493 1.462 2.2 2.223.537.58.537 1.475 0 2.055-.376.426-.792.814-1.189 1.222-.036.034-.074.064-.14.124C6.318 8.048 7.9 9.626 9.82 10.68l.947-.958c.233-.275.524-.493.853-.64.529-.23 1.143-.12 1.56.278.795.756 1.57 1.534 2.325 2.333.53.569.548 1.445.04 2.033-.477.564-1.006 1.097-1.542 1.613-.381.35-.866.567-1.382.617-.037.008-.073.02-.109.032l-.63.008zm.236-.962c.532.03 1.05-.175 1.42-.559.358-.375.724-.742 1.087-1.113.047-.048.091-.097.132-.15.125-.125.194-.296.19-.473-.004-.177-.079-.345-.209-.465-.292-.316-.601-.615-.904-.92-.395-.394-.785-.791-1.184-1.18-.118-.131-.284-.21-.46-.214-.177-.005-.348.064-.473.189-.06.049-.113.104-.168.16-.38.377-.755.76-1.137 1.133-.227.26-.607.324-.907.151-.232-.117-.463-.235-.687-.367-.986-.603-1.879-1.348-2.65-2.21-.713-.731-1.306-1.573-1.753-2.492-.226-.499-.177-.742.213-1.122.39-.38.809-.783 1.195-1.192.126-.114.2-.274.202-.444.003-.17-.065-.333-.187-.45-.047-.056-.096-.107-.145-.158L3.822 1.276c-.401-.394-.758-.399-1.159 0-.4.4-.778.751-1.143 1.15-.18.186-.324.403-.427.64-.16.51-.167 1.055-.019 1.568.178.797.457 1.568.832 2.294.643 1.279 1.459 2.464 2.424 3.522 1.66 1.89 3.762 3.34 6.118 4.224.536.202 1.1.321 1.672.352v.008z" transform="translate(-24 -379) translate(25 376) translate(0 4)"/>
                </g>
            </g>
        </g>
    </g>
</svg>
