<svg xmlns="http://www.w3.org/2000/svg" width="20" height="20" viewBox="0 0 20 20">
    <g fill="none" fill-rule="evenodd">
        <g fill="#1F2343">
            <path d="M10.034 10.748l.248.004c4.273.129 7.725 3.58 7.856 7.854l.004.252v.852H1.85v-.852l.004-.248c.129-4.273 3.58-7.726 7.852-7.858l.253-.004h.075zm0 1.702H9.96c-3.151 0-5.833 2.285-6.36 5.36l-.05.292h12.895l-.05-.293c-.527-3.074-3.209-5.359-6.36-5.359zM9.996.227c2.467 0 4.474 2.007 4.474 4.474-.004 2.465-2.01 4.47-4.472 4.474h-.002c-2.467 0-4.474-2.008-4.474-4.474 0-2.467 2.007-4.474 4.474-4.474zm0 1.505c-1.637 0-2.969 1.33-2.969 2.968 0 1.637 1.33 2.968 2.968 2.969 1.636-.002 2.967-1.333 2.97-2.968 0-1.638-1.332-2.97-2.969-2.97z"/>
        </g>
    </g>
</svg>
