<svg xmlns="http://www.w3.org/2000/svg" width="20" height="20" viewBox="0 0 20 20">
    <g fill="none" fill-rule="evenodd">
        <g fill="#1F2343">
            <path d="M19.322 1.88c-5.31-2.161-8.165.145-9.405 1.715-1.128-1.43-3.599-3.471-8.05-2.19-.459.135-.911.294-1.355.475-.09.043-.174.098-.248.165-.044.049-.082.101-.115.157-.034.044-.063.091-.087.141-.04.099-.06.204-.062.31v13.223c.004.083.02.165.045.244v.062c.127.319.438.526.781.52.117 0 .23-.027.335-.078 5.93-2.4 7.889 1.806 7.992 2.041 0 .025.029.046.041.066.031.063.07.121.116.174.029.03.06.059.095.083.037.03.077.059.12.082l.128.058c.054.017.11.028.165.033.033.01.066.016.1.02.032.003.066.003.099 0 .055-.006.11-.017.165-.032l.128-.058c.042-.024.082-.051.12-.083.033-.026.065-.055.095-.087.046-.049.085-.104.115-.165l.042-.07c.09-.21 2-4.475 8.016-2.029.258.104.55.072.778-.085.23-.157.364-.419.359-.696V2.653c.003-.338-.2-.644-.513-.773zM1.652 14.702V3.227c.17-.062.352-.132.517-.182.166-.05.22-.057.331-.086.21-.054.413-.112.62-.15.124-.024.24-.036.36-.053.12-.016.342-.054.503-.066h.794c.144 0 .219 0 .326.025.108.025.26.029.385.05l.301.057c.116.025.232.058.343.091l.269.083.306.124.231.107c.095.05.186.1.273.153.087.054.14.075.202.116.062.041.17.12.248.178.079.057.112.078.161.12.05.04.166.144.244.214.079.07.074.062.103.095.108.104.203.207.29.306l.074.091.165.207c.03.037.05.074.075.107l.111.161.058.095.079.128c.014.024.026.05.037.075.012.018.023.037.033.058v10.607c-1.376-1.248-3.744-2.376-7.438-1.236zm16.53 0c-3.694-1.14-6.058 0-7.438 1.24V5.314c.363-.71 2.335-3.921 7.438-2.1v11.488z"/>
        </g>
    </g>
</svg>
