<svg xmlns="http://www.w3.org/2000/svg" width="22" height="22" viewBox="0 0 22 22">
    <g fill="none" fill-rule="evenodd">
        <g fill="#1F2343" fill-rule="nonzero" stroke="#1F2343" stroke-width=".25">
            <path d="M9.286 0c5.12 0 9.285 4.165 9.285 9.285 0 2.304-.845 4.412-2.24 6.036h0l3.46 3.459c.129.13.209.308.209.506 0 .394-.32.714-.714.714-.197 0-.376-.08-.505-.209h0l-3.46-3.458c-1.623 1.393-3.732 2.238-6.035 2.238C4.166 18.571 0 14.406 0 9.286S4.166.001 9.286.001zm0 1.429c-4.348 0-7.857 3.509-7.857 7.856 0 4.348 3.51 7.857 7.857 7.857s7.856-3.51 7.856-7.857S13.633 1.43 9.286 1.43z" transform="translate(-654 -11) translate(655 12)"/>
        </g>
    </g>
</svg>
