<svg xmlns="http://www.w3.org/2000/svg" width="20" height="20" viewBox="0 0 20 20">
    <g fill="none" fill-rule="evenodd">
        <g fill="#1F2343">
            <path d="M19.743 5.616c-.346.37-.914.37-1.26 0l-2.3-2.39v15.887c0 .493-.396.887-.89.887-.495 0-.89-.394-.89-.887V3.227l-2.3 2.389c-.346.37-.915.37-1.26 0-.347-.37-.347-.96 0-1.33L14.575.369 14.6.345l.05-.05c.148-.172.37-.27.618-.27.247 0 .47.098.643.27l3.808 3.99c.37.37.37.961.024 1.33zM5.403 19.63l-.075.073c-.148.173-.37.271-.618.271-.247 0-.47-.098-.643-.27L.26 15.714c-.347-.37-.347-.961 0-1.33.346-.37.914-.37 1.26 0l2.3 2.388V.887c0-.493.396-.887.89-.887.495 0 .89.394.89.887v15.886l2.3-2.389c.346-.37.915-.37 1.26 0 .347.37.347.96 0 1.33l-3.757 3.917z"/>
        </g>
    </g>
</svg>
