<svg xmlns="http://www.w3.org/2000/svg" width="20" height="20" viewBox="0 0 20 20">
    <g fill="none" fill-rule="evenodd">
        <g>
            <rect width="20" height="20" fill="#30ABD6" rx="10"/>
            <path fill="#FFF" d="M10.59 9.026c.06-.075.052-.183-.016-.25-.069-.066-.176-.07-.248-.007L7.02 11.615l-1.746-.683c-.155-.06-.261-.206-.272-.374-.01-.167.076-.326.222-.406l7.25-4.109c.116-.063.257-.056.367.017.11.074.17.203.158.336l-.636 6.707c-.012.14-.09.265-.208.338-.118.073-.263.085-.392.033l-2.125-.833-1.334 1.265c-.101.095-.248.12-.374.065-.126-.056-.207-.183-.206-.322v-.994l2.868-3.629z"/>
        </g>
    </g>
</svg>
