<svg xmlns="http://www.w3.org/2000/svg" width="20" height="20" viewBox="0 0 20 20">
    <g fill="none" fill-rule="evenodd">
        <g fill="#1F2343" fill-rule="nonzero" stroke="#1F2343" stroke-width=".2">
            <path d="M11.058 4c.583-.004 1.142.23 1.556.647.415.417.65.986.653 1.58h0v7.546c-.004.594-.238 1.163-.653 1.58-.414.418-.973.65-1.556.647h0-8.67C1.185 15.996.209 15.003.2 13.773h0V6.227C.207 4.997 1.184 4.004 2.389 4h0zm0 1.333h-8.67c-.484 0-.878.4-.881.894h0v7.546c.003.495.397.894.882.894h8.67c.236.005.464-.087.633-.254.17-.168.266-.399.268-.64h0V6.227c-.002-.241-.098-.472-.268-.64-.169-.167-.397-.259-.634-.254h0zm7.834.06c.2-.088.43-.068.614.054.183.122.293.33.294.553h0v8c0 .223-.11.432-.293.555-.182.124-.413.145-.615.058h0l-4.573-2c-.242-.104-.399-.345-.399-.613h0V8c.003-.265.16-.503.399-.607h0zm-.399 1.62L15.227 8.44v3.12l3.266 1.427V7.013z"/>
        </g>
    </g>
</svg>
